<svg xmlns="http://www.w3.org/2000/svg" viewBox="0 0 1300 300"><defs><style>.cls-1{fill:#ff8000;}.cls-2{fill:#fff;}.cls-3{fill:none;stroke:#fff;stroke-linecap:round;stroke-linejoin:round;stroke-width:4px;}</style></defs><g id="Layer_1" data-name="Layer 1"><rect class="cls-1" width="1300" height="300"/></g><g id="Layer_2" data-name="Layer 2"><path class="cls-2" d="M535.02393,168.51563l.25439-2.18653a28.57708,28.57708,0,0,0,6.624-.94043,18.31517,18.31517,0,0,0,4.98389-2.123,9.88212,9.88212,0,0,0,3.12744-3.03907,6.8853,6.8853,0,0,0,1.08057-3.71289q0-7.29639-11.44238-7.67871l-.127-.17773,4.29688-15.38379q3.20434.10254,8.95068.10156,4.50073,0,8.13721-.10156l.07617.20312-1.93262,5.9502-13.90918-.35547-1.22021,4.14453q7.42457.53321,11.20068,3.458a9.22341,9.22341,0,0,1,3.77637,7.65332,10.259,10.259,0,0,1-.83936,4.15723,11.69762,11.69762,0,0,1-2.37744,3.49707,16.38978,16.38978,0,0,1-3.6997,2.79687,25.23823,25.23823,0,0,1-4.81885,2.05957,34.58537,34.58537,0,0,1-5.72119,1.25879A47.39022,47.39022,0,0,1,535.02393,168.51563Z"/><path class="cls-2" d="M577.71729,132.71387a12.63079,12.63079,0,0,1,8.4165,2.65722,9.284,9.284,0,0,1,3.15332,7.51368q0,6.917-3.85254,10.76855-3.85254,3.85254-10.438,3.85254a12.6889,12.6889,0,0,1-8.39111-2.64453,9.23983,9.23983,0,0,1-3.17871-7.52637q0-6.81445,3.78906-10.71777Q571.00391,132.71485,577.71729,132.71387Zm-.27979,2.31445q-3.17871,0-4.92041,4.09375a25.06947,25.06947,0,0,0-1.7417,9.83984,7.92709,7.92709,0,0,0,1.13184,4.67872,3.9003,3.9003,0,0,0,3.36914,1.55078q3.15234,0,4.90722-3.90235a24.68327,24.68327,0,0,0,1.75489-10.05664,7.80053,7.80053,0,0,0-1.14453-4.666A3.92119,3.92119,0,0,0,577.4375,135.02832Z"/><path class="cls-2" d="M604.23828,119.085a6.32017,6.32017,0,0,1,5.00928,1.90723q1.67871,1.90722,1.67822,5.7207a16.91464,16.91464,0,0,1-2.84765,9.68848,8.7033,8.7033,0,0,1-7.52686,4.2207,6.31711,6.31711,0,0,1-4.9707-1.89453q-1.6919-1.894-1.69092-5.75879a16.81693,16.81693,0,0,1,2.86035-9.66309A8.6912,8.6912,0,0,1,604.23828,119.085Zm-.20312,1.70313q-2.39062,0-3.95411,4.8955a30.9888,30.9888,0,0,0-1.564,9.44629,5.80716,5.80716,0,0,0,.55957,2.7461,1.76211,1.76211,0,0,0,1.62744,1.042q2.33935,0,3.9668-4.9834a30.22909,30.22909,0,0,0,1.62744-9.35742,5.73235,5.73235,0,0,0-.55957-2.82227A1.8399,1.8399,0,0,0,604.03516,120.78809ZM600.2207,156.667l24.05469-37.55664,2.314,1.60156-24.08008,37.55664Zm27.64014-20.85058a6.32021,6.32021,0,0,1,5.00928,1.90722q1.67871,1.90723,1.67773,5.72071a16.91476,16.91476,0,0,1-2.84717,9.6875,8.70211,8.70211,0,0,1-7.52685,4.22168,6.31886,6.31886,0,0,1-4.97119-1.89454q-1.69116-1.894-1.69092-5.75976a16.81419,16.81419,0,0,1,2.86084-9.66211A8.6906,8.6906,0,0,1,627.86084,135.81641Zm-.20361,1.70312q-2.38991,0-3.95362,4.89551a30.984,30.984,0,0,0-1.564,9.44629,5.80711,5.80711,0,0,0,.55957,2.74609,1.76162,1.76162,0,0,0,1.62744,1.042q2.33862,0,3.96631-4.98339a30.21466,30.21466,0,0,0,1.62744-9.35743,5.7329,5.7329,0,0,0-.55908-2.82226A1.84015,1.84015,0,0,0,627.65723,137.51953Z"/><path class="cls-2" d="M665.84961,157.75977q-7.4502,0-11.96387-3.9668-4.51319-3.9668-4.51367-10.98438a21.7088,21.7088,0,0,1,6.31934-15.80273,21.03646,21.03646,0,0,1,15.65039-6.44629q7.47656,0,12.00195,3.94141,4.52637,3.9419,4.52637,11.00976a21.67874,21.67874,0,0,1-6.31836,15.8418A21.16746,21.16746,0,0,1,665.84961,157.75977Zm13.80762-23.08789q0-5.49171-2.44141-8.59473a7.94326,7.94326,0,0,0-6.58594-3.10156q-6.02637,0-9.54785,5.88574-3.52295,5.8872-3.52148,14.76074,0,5.44189,2.415,8.582a7.88768,7.88768,0,0,0,6.61132,3.14063q6.02637,0,9.54786-5.84864Q679.65625,143.64844,679.65723,134.67188Z"/><path class="cls-2" d="M701.39844,148.86035q-.30615,1.52637-.53418,2.77149-.22852,1.24657-.38184,2.26367-.07617.63575.71192.86426l3.35644.88964-.20312,1.29688q-4.57764-.07617-8.28907-.07617-4.043,0-7.65429.07617l.15234-1.29688,3.43262-.94043a1.11645,1.11645,0,0,0,.86523-.78808q.20215-1.01661.457-2.27637.2549-1.25831.55957-2.78418l3.86524-20.21484q.25341-1.29639.43262-2.33887.17724-1.043.30468-1.88184a.67331.67331,0,0,0-.43164-.86523l-3.35644-.99121.20312-1.29688q3.86425.10254,7.85742.10157h5.03418q6.07764,0,12.917-.10157l.12793.20313-2.92481,8.46777-1.42383.20313-.71191-6.2041h-9.58594l-2.66992,14.1123h1.27148q1.8296,0,5.085-.02539a1.04259,1.04259,0,0,0,.99219-.68652l1.57617-3.4834,1.57618-.05078q-1.27149,5.543-2.11036,10.832l-1.57617.10156-.28027-3.50879q-.05127-.66064-.63477-.68652-2.23827-.05127-5.16211-.05078H703Z"/><path class="cls-2" d="M730.41113,148.86035q-.30615,1.52637-.53418,2.77149-.22851,1.24657-.38183,2.26367-.07617.63575.71191.86426l3.35645.88964-.20313,1.29688q-4.57764-.07617-8.28906-.07617-4.043,0-7.6543.07617l.15235-1.29688,3.43261-.94043a1.11647,1.11647,0,0,0,.86524-.78808q.20214-1.01661.457-2.27637.25488-1.25831.55957-2.78418l3.86523-20.21484q.25342-1.29639.43262-2.33887.17724-1.043.30469-1.88184a.67331.67331,0,0,0-.43164-.86523l-3.35645-.99121.20313-1.29688q3.86425.10254,7.85742.10157H736.793q6.07764,0,12.917-.10157l.12793.20313-2.9248,8.46777-1.42383.20313-.71192-6.2041h-9.58593l-2.66993,14.1123H733.793q1.8296,0,5.085-.02539a1.04259,1.04259,0,0,0,.99219-.68652l1.57617-3.4834,1.57617-.05078q-1.27149,5.543-2.11035,10.832l-1.57617.10156-.28028-3.50879q-.05127-.66064-.63476-.68652-2.23828-.05127-5.16211-.05078H732.0127Z"/><path class="cls-2" d="M753.3457,149.85254a3.67788,3.67788,0,0,1,2.69532,1.05469,3.73748,3.73748,0,0,1,1.06836,2.78418,3.69833,3.69833,0,0,1-1.11915,2.78418,3.8015,3.8015,0,0,1-2.74609,1.081,3.64132,3.64132,0,0,1-2.74609-1.081,3.84083,3.84083,0,0,1-1.042-2.78418,3.695,3.695,0,0,1,1.09278-2.78418A3.86194,3.86194,0,0,1,753.3457,149.85254Zm-.15234-3.56055,2.00879-23.90136,7.98437-.30567.20313.2041-8.1875,23.90137Z"/><path class="cls-2" d="M534.69043,173.13281l1.67822-.29492.12207.07129q-.468,1.92188-.64062,2.72559H538.708l-.20313,1.06836H535.606q-.29517,1.30077-.59473,2.63867-.30028,1.3374-.57471,2.69043a4.13086,4.13086,0,0,0-.09179.79394,1.00274,1.00274,0,0,0,.28466.81348,1.23272,1.23272,0,0,0,.80372.2334,7.349,7.349,0,0,0,1.85107-.31543l.10156.66113a8.14128,8.14128,0,0,1-3.54931.916,2.92467,2.92467,0,0,1-1.77-.46778,1.625,1.625,0,0,1-.63037-1.39355,4.08173,4.08173,0,0,1,.061-.67188q.1831-.96533.50342-2.43066.32007-1.46484.80859-3.55957l-1.44433-.377.03027-.43653,1.79-.16308Z"/><path class="cls-2" d="M545.02441,175.26855a5.15046,5.15046,0,0,1,3.50879,1.14454,3.87387,3.87387,0,0,1,1.312,3.07617,5.47377,5.47377,0,0,1-5.70605,5.65527,5.13726,5.13726,0,0,1-3.52393-1.14355,3.83954,3.83954,0,0,1-1.29687-3.02637,5.638,5.638,0,0,1,1.56641-4.08887A5.49933,5.49933,0,0,1,545.02441,175.26855Zm-.12207,1.04786a2.16523,2.16523,0,0,0-1.87158,1.38769,6.87316,6.87316,0,0,0-.73242,3.32129,4.31108,4.31108,0,0,0,.51855,2.25781,1.61008,1.61008,0,0,0,1.44434.81348,2.12542,2.12542,0,0,0,1.87158-1.42871,7.28413,7.28413,0,0,0,.71192-3.29,4.15826,4.15826,0,0,0-.51856-2.25293A1.61118,1.61118,0,0,0,544.90234,176.31641Z"/><path class="cls-2" d="M566.63818,175.40039q-.37646,1.2422-.76318,3.17383l-.915,4.52637a1.87292,1.87292,0,0,0-.05127.38671.59007.59007,0,0,0,.08692.33985.58107.58107,0,0,0,.27441.2041,1.61582,1.61582,0,0,0,.48828.09668q.29957.02051.73731.02051l-.07129.47754a12.61887,12.61887,0,0,1-2.68506.42675,1.88754,1.88754,0,0,1-1.19531-.33984,1.17753,1.17753,0,0,1-.43213-.98242v-.20313q-1.84131,1.61719-2.65479,1.61719a2.90827,2.90827,0,0,1-2.29834-1.0625,3.99031,3.99031,0,0,1-.91553-2.70019,6.0208,6.0208,0,0,1,6.18409-6.11329,9.61908,9.61908,0,0,1,2.54248.376,12.832,12.832,0,0,0,1.4956-.35547Zm-3.14306,1.05859a2.93968,2.93968,0,0,0-1.251-.25488,2.526,2.526,0,0,0-2.19678,1.52637,6.52971,6.52971,0,0,0-.86474,3.27441,4.71763,4.71763,0,0,0,.32031,1.80567q.32081.77783.7373.77832A4.53709,4.53709,0,0,0,562.25439,182.5Z"/><path class="cls-2" d="M568.54,184.9209l1.57666-7.67871a3.51563,3.51563,0,0,0,.08105-.53906.36356.36356,0,0,0-.09668-.2754.62853.62853,0,0,0-.28955-.13671,2.54732,2.54732,0,0,0-.48339-.05664c-.19336-.00586-.41553-.00977-.666-.00977l.061-.46777a12.31172,12.31172,0,0,1,2.77686-.46778,2.22565,2.22565,0,0,1,1.13379.25391.822.822,0,0,1,.43213.75293,2.00071,2.00071,0,0,1-.02.20312,7.29327,7.29327,0,0,1,3.69189-1.2207,2.40377,2.40377,0,0,1,1.72412.585,2.08,2.08,0,0,1,.61524,1.582,4.26879,4.26879,0,0,1-.11182.93555l-1.01709,4.82129a1.32521,1.32521,0,0,0-.03027.15723,1.11215,1.11215,0,0,0-.01026.14746.50826.50826,0,0,0,.10157.33593.58546.58546,0,0,0,.2998.17774,2.21648,2.21648,0,0,0,.49365.07129q.29443.01611.67139.01562l-.041.46778a9.42806,9.42806,0,0,1-2.79688.47753,2.00707,2.00707,0,0,1-1.19531-.29492,1.11816,1.11816,0,0,1-.40137-.96582,3.89172,3.89172,0,0,1,.08106-.73242l.91552-4.251a4.40627,4.40627,0,0,0,.11182-.88574,1.27022,1.27022,0,0,0-.27441-.89941,1.04113,1.04113,0,0,0-.79346-.29,5.65587,5.65587,0,0,0-2.187.65039l-1.51514,7.43555Z"/><path class="cls-2" d="M587.89551,175.98047q1.50513-.41748,2.73584-.7832l.22412.15234q-.397,1.09863-.81885,2.06543-.42261.96533-.85449,1.82031-.43214.854-.86426,1.61231-.43285.75732-.83935,1.42871-.427.70166-.79834,1.31738-.37134.61524-.69678,1.18457-.2644.44824-.54395,1.0127-.28052.564-.54931,1.14843c-.17969.39063-.34424.76953-.49366,1.13965q-.22338.55371-.376.96094a1.5129,1.5129,0,0,1-.3003.52441,1.0954,1.0954,0,0,1-.43212.2793,2.14792,2.14792,0,0,1-.60547.1123q-.35084.019-.81836.01954a20.897,20.897,0,0,1-2.21729-.10157l-.05127-.51855a6.44313,6.44313,0,0,0,1.11377-.22363,2.54559,2.54559,0,0,0,.85987-.4375,5.62242,5.62242,0,0,0,.47265-.41211,8.06679,8.06679,0,0,0,.61035-.67578q.35083-.42774.82373-1.084.47315-.65478,1.11377-1.63183l-.56933-.13282q-.07177-.54931-.22412-1.28125-.15235-.73242-.356-1.52539-.20361-.79394-.437-1.60254-.23437-.80859-.46826-1.5-.23366-.6914-.44727-1.21484a4.82117,4.82117,0,0,0-.36621-.75781,1.29217,1.29217,0,0,0-.356-.37207,1.35348,1.35348,0,0,0-.42236-.18262,2.8168,2.8168,0,0,0-.49805-.07129c-.17968-.00977-.37158-.01855-.5747-.02539l.061-.46777a11.23783,11.23783,0,0,1,2.70557-.46778,2.72884,2.72884,0,0,1,.97607.16309,1.16534,1.16534,0,0,1,.63086.52832q.15234.27539.37647.80371.22338.52881.45752,1.22559.23364.69726.47314,1.51074.23877.813.42187,1.65722l.19336,1.09864a16.88165,16.88165,0,0,0,1.23584-3.10742A13.16562,13.16562,0,0,0,587.89551,175.98047Z"/><path class="cls-2" d="M594.29346,189.31445l1.22021-.3457a.41774.41774,0,0,0,.32569-.31543c.061-.251.13037-.56055.20849-.93066q.11646-.55371.26953-1.31641l1.88184-9.16406a3.63208,3.63208,0,0,0,.08105-.51953.39356.39356,0,0,0-.23388-.38575,4.26977,4.26977,0,0,0-1.30176-.1123l.061-.46777a11.87011,11.87011,0,0,1,2.89893-.46778,1.962,1.962,0,0,1,1.04248.2334.82445.82445,0,0,1,.37109.75293l-.01025.12207h.02051a8.67535,8.67535,0,0,1,2.9292-1.1084,2.5421,2.5421,0,0,1,2.04931,1.02246,3.78763,3.78763,0,0,1,.82911,2.46582,6.14865,6.14865,0,0,1-1.78516,4.57227,6.31919,6.31919,0,0,1-4.64307,1.76465,8.97347,8.97347,0,0,1-1.14941-.08106l-.42725,2.11524q-.11205.51855-.17773.86426c-.04444.23046-.07617.417-.09668.55957q-.041.30468.20361.36621l1.47461.376-.10156.499q-2.00391-.03077-3.05127-.03028-1.2312,0-2.94971.03028Zm5.2583-5.22754a4.3321,4.3321,0,0,0,.79345.08106,3.03416,3.03416,0,0,0,2.65967-1.46387,6.02362,6.02362,0,0,0,.97119-3.4082,4.53441,4.53441,0,0,0-.30517-1.80469.994.994,0,0,0-.93555-.69726,3.88674,3.88674,0,0,0-1.81055.58007Z"/><path class="cls-2" d="M608.72607,184.9209l1.57666-7.67871a4.417,4.417,0,0,0,.08106-.53906.36436.36436,0,0,0-.09668-.26954.59485.59485,0,0,0-.28955-.14257,2.54744,2.54744,0,0,0-.4834-.05664c-.19336-.00586-.41553-.00977-.666-.00977l.061-.46777a12.081,12.081,0,0,1,2.77686-.46778,2.19889,2.19889,0,0,1,1.1289.25391.824.824,0,0,1,.42725.75293c0,.06055-.00391.13574-.01026.22363a6.70912,6.70912,0,0,1,3.75293-1.251l.07129.0918q-.36621,1.59667-.70166,3.35645l-.63086.10156a4.30436,4.30436,0,0,0-.44726-1.51074.85917.85917,0,0,0-.76319-.40137,3.47493,3.47493,0,0,0-1.43408.44727l-1.51514,7.46582Z"/><path class="cls-2" d="M623.22021,175.26855a5.15046,5.15046,0,0,1,3.50879,1.14454,3.87388,3.87388,0,0,1,1.312,3.07617,5.47378,5.47378,0,0,1-5.70606,5.65527A5.13722,5.13722,0,0,1,618.811,184.001a3.83951,3.83951,0,0,1-1.29688-3.02637,5.638,5.638,0,0,1,1.56641-4.08887A5.49933,5.49933,0,0,1,623.22021,175.26855Zm-.12207,1.04786a2.16523,2.16523,0,0,0-1.87158,1.38769,6.87328,6.87328,0,0,0-.73242,3.32129,4.311,4.311,0,0,0,.51856,2.25781,1.61006,1.61006,0,0,0,1.44433.81348,2.12542,2.12542,0,0,0,1.87158-1.42871,7.28413,7.28413,0,0,0,.71192-3.29,4.15826,4.15826,0,0,0-.51856-2.25293A1.61118,1.61118,0,0,0,623.09814,176.31641Z"/><path class="cls-2" d="M636.38184,170.875l.00976-.4375q2.70411-.41748,4.72852-.88477l.123.12207c-.06054.25782-.1289.55079-.20312.87989q-.11133.49218-.24024,1.07812-.126.58447-.26367,1.24512-.13768.66212-.28906,1.36328l-1.17969,5.68555-.64258,3.17383a1.93706,1.93706,0,0,0-.05078.38671.58637.58637,0,0,0,.08789.33985.57807.57807,0,0,0,.27344.2041,1.619,1.619,0,0,0,.48828.09668c.20117.01367.44532.02051.73828.02051l-.07226.47754a12.61735,12.61735,0,0,1-2.6836.42675,1.8681,1.8681,0,0,1-1.1914-.33984,1.1814,1.1814,0,0,1-.42578-.98242v-.20313q-1.88379,1.61719-2.7168,1.61719a2.90827,2.90827,0,0,1-2.29834-1.0625,3.99031,3.99031,0,0,1-.91553-2.70019,6.00319,6.00319,0,0,1,6.15332-6.11329,9.10087,9.10087,0,0,1,1.38282.11231l.875-4.26172Zm.58984,5.584a3.40534,3.40534,0,0,0-1.34375-.25488,2.50059,2.50059,0,0,0-2.17578,1.52637,6.58542,6.58542,0,0,0-.85449,3.27441,4.70834,4.70834,0,0,0,.32031,1.80567q.32081.77783.7373.77832A4.70039,4.70039,0,0,0,635.72949,182.5Z"/><path class="cls-2" d="M641.97559,176.22461l.06152-.46777a12.0969,12.0969,0,0,1,2.96-.46778,1.98032,1.98032,0,0,1,1.05176.2334.82311.82311,0,0,1,.37207.75293,1.82847,1.82847,0,0,1-.041.417l-1.01758,4.61817a4.16318,4.16318,0,0,0-.09082.82324,1.69511,1.69511,0,0,0,.29981,1.07324.9865.9865,0,0,0,.81836.38184,3.57875,3.57875,0,0,0,2.1875-1.16016l1.42383-6.835,2.85742-.10156-1.55567,7.54687a2.46351,2.46351,0,0,0-.06152.47852.59808.59808,0,0,0,.07715.32519.48508.48508,0,0,0,.25879.18848,1.834,1.834,0,0,0,.4834.08594q.30029.02051.74707.03125l-.06055.47754a12.60411,12.60411,0,0,1-2.665.42675,1.88492,1.88492,0,0,1-1.20508-.35058,1.20289,1.20289,0,0,1-.44238-1.00195c0-.06055.00293-.125.00977-.19336a4.87134,4.87134,0,0,1-3.32618,1.64843,2.49,2.49,0,0,1-2.65429-2.67578,4.63167,4.63167,0,0,1,.03613-.56933q.03516-.29443.09668-.61036l.834-4.04785a3.37946,3.37946,0,0,0,.08106-.52929.39154.39154,0,0,0-.24414-.38575A4.22219,4.22219,0,0,0,641.97559,176.22461Z"/><path class="cls-2" d="M662.22559,182.83594l.3457.50879a5.39845,5.39845,0,0,1-3.9668,1.7998,3.92555,3.92555,0,0,1-2.82226-1.0625,3.81133,3.81133,0,0,1-1.11328-2.89355,5.48248,5.48248,0,0,1,1.85058-4.21094,6.29237,6.29237,0,0,1,4.4043-1.69922,7.84461,7.84461,0,0,1,2.71582.46875q-.37647,1.47363-.66113,3l-.50879.08106-.78321-2.46094a2.16361,2.16361,0,0,0-.62011-.08106,2.91218,2.91218,0,0,0-2.48145,1.32715,5.47035,5.47035,0,0,0-.94629,3.25977,3.299,3.299,0,0,0,.59473,2.10058,1.9524,1.9524,0,0,0,1.6123.74707A4.23563,4.23563,0,0,0,662.22559,182.83594Z"/><path class="cls-2" d="M668.64355,173.13281l1.67872-.29492.12207.07129q-.46875,1.92188-.64063,2.72559h2.85742l-.20312,1.06836h-2.89844q-.29591,1.30077-.5957,2.63867-.3003,1.3374-.57422,2.69043a4.09229,4.09229,0,0,0-.0918.79394,1.00124,1.00124,0,0,0,.28516.81348,1.22887,1.22887,0,0,0,.80273.2334,7.34872,7.34872,0,0,0,1.85156-.31543l.10157.66113a8.14,8.14,0,0,1-3.54981.916,2.92406,2.92406,0,0,1-1.76953-.46778,1.624,1.624,0,0,1-.63086-1.39355,4.08588,4.08588,0,0,1,.06153-.67188q.18311-.96533.50293-2.43066.32079-1.46484.80859-3.55957l-1.44434-.377.03125-.43653,1.79-.16308Z"/><path class="cls-2" d="M679.87207,176.42773a4.51376,4.51376,0,0,0-1.13867-.1621,2.99927,2.99927,0,0,0-1.58692.35058,1.153,1.153,0,0,0-.55957,1.043.8764.8764,0,0,0,.15821.51855,1.68315,1.68315,0,0,0,.43164.41211,4.85678,4.85678,0,0,0,.62109.35547q.3457.16846.72168.34082.44824.21387.89551.458a3.78722,3.78722,0,0,1,.78809.56445,2.83406,2.83406,0,0,1,.56445.74219,2.08638,2.08638,0,0,1,.22363.99219,2.621,2.621,0,0,1-1.1748,2.293,5.64593,5.64593,0,0,1-3.23926.80859,10.16921,10.16921,0,0,1-1.92774-.18262,10.303,10.303,0,0,1-1.74414-.48828q.17286-.61083.33594-1.28222.1626-.67091.30469-1.373l.50879-.08106.66113,2.19727a5.27584,5.27584,0,0,0,1.46484.21387,2.5357,2.5357,0,0,0,1.48438-.38672,1.28427,1.28427,0,0,0,.5498-1.11914.9362.9362,0,0,0-.16308-.54883,1.79644,1.79644,0,0,0-.43164-.42773,4.30585,4.30585,0,0,0-.61621-.36133q-.3457-.167-.71192-.33985a9.22555,9.22555,0,0,1-.8291-.42773,3.77554,3.77554,0,0,1-.72656-.54883,2.50471,2.50471,0,0,1-.52442-.73242,2.25811,2.25811,0,0,1-.19824-.97656,2.48144,2.48144,0,0,1,1.2461-2.21192,6.19466,6.19466,0,0,1,3.34179-.78906,9.99744,9.99744,0,0,1,3.08106.47852q-.15236.51855-.30957,1.16992-.15821.65039-.30078,1.39355l-.49805.09082Z"/><path class="cls-2" d="M694.84473,175.98047q1.50439-.41748,2.73535-.7832l.22363.15234q-.39551,1.09863-.81836,2.06543-.42187.96533-.85449,1.82031-.43214.854-.86426,1.61231-.43212.75732-.83887,1.42871-.42773.70166-.79882,1.31738-.37208.61524-.69727,1.18457-.26367.44824-.54394,1.0127-.27979.564-.54883,1.14843c-.17969.39063-.34473.76953-.49317,1.13965q-.22411.55371-.37695.96094a1.51252,1.51252,0,0,1-.2998.52441,1.09036,1.09036,0,0,1-.43262.2793,2.144,2.144,0,0,1-.60449.1123c-.23438.0127-.50684.01954-.81934.01954a20.89368,20.89368,0,0,1-2.2168-.10157l-.05078-.51855a6.4654,6.4654,0,0,0,1.11328-.22363,2.53852,2.53852,0,0,0,.85938-.4375,5.54447,5.54447,0,0,0,.47363-.41211,7.9956,7.9956,0,0,0,.60938-.67578q.35155-.42774.82421-1.084.47314-.65478,1.11426-1.63183l-.57031-.13282q-.0703-.54931-.22363-1.28125-.15236-.73242-.35547-1.52539-.20361-.79394-.4375-1.60254-.23437-.80859-.46777-1.5-.23437-.6914-.44825-1.21484a4.74913,4.74913,0,0,0-.36523-.75781,1.30635,1.30635,0,0,0-.35645-.37207,1.35579,1.35579,0,0,0-.42187-.18262,2.8284,2.8284,0,0,0-.499-.07129q-.26952-.01466-.57421-.02539l.06054-.46777a11.24479,11.24479,0,0,1,2.70606-.46778,2.73349,2.73349,0,0,1,.97656.16309,1.16318,1.16318,0,0,1,.62988.52832,8.78,8.78,0,0,1,.377.80371q.22264.52881.458,1.22559.23292.69726.47266,1.51074.23877.813.42188,1.65722l.19335,1.09864a16.84528,16.84528,0,0,0,1.23536-3.10742A13.16725,13.16725,0,0,0,694.84473,175.98047Z"/><path class="cls-2" d="M703.96777,175.26855a5.15311,5.15311,0,0,1,3.50977,1.14454,3.87661,3.87661,0,0,1,1.31152,3.07617,5.47377,5.47377,0,0,1-5.70605,5.65527,5.14113,5.14113,0,0,1-3.52442-1.14355,3.84111,3.84111,0,0,1-1.29687-3.02637,5.64,5.64,0,0,1,1.56641-4.08887A5.50232,5.50232,0,0,1,703.96777,175.26855Zm-.12207,1.04786a2.16626,2.16626,0,0,0-1.87109,1.38769,6.87316,6.87316,0,0,0-.73242,3.32129,4.311,4.311,0,0,0,.51855,2.25781,1.609,1.609,0,0,0,1.44434.81348,2.12652,2.12652,0,0,0,1.87207-1.42871,7.28413,7.28413,0,0,0,.71191-3.29,4.14917,4.14917,0,0,0-.51953-2.25293A1.61063,1.61063,0,0,0,703.8457,176.31641Z"/><path class="cls-2" d="M710.62012,176.22461l.06152-.46777a12.0969,12.0969,0,0,1,2.96-.46778,1.98032,1.98032,0,0,1,1.05176.2334.82311.82311,0,0,1,.37207.75293,1.82847,1.82847,0,0,1-.041.417l-1.01757,4.61817a4.16243,4.16243,0,0,0-.09082.82324,1.69517,1.69517,0,0,0,.2998,1.07324.98651.98651,0,0,0,.81836.38184,3.57875,3.57875,0,0,0,2.1875-1.16016l1.42383-6.835,2.85742-.10156-1.55566,7.54687a2.46287,2.46287,0,0,0-.06153.47852.59808.59808,0,0,0,.07715.32519.48508.48508,0,0,0,.25879.18848,1.834,1.834,0,0,0,.4834.08594q.30029.02051.74707.03125l-.06055.47754a12.60411,12.60411,0,0,1-2.665.42675,1.88492,1.88492,0,0,1-1.20508-.35058,1.20289,1.20289,0,0,1-.44238-1.00195c0-.06055.00293-.125.00977-.19336a4.87134,4.87134,0,0,1-3.32617,1.64843,2.49,2.49,0,0,1-2.6543-2.67578,4.63167,4.63167,0,0,1,.03613-.56933q.03516-.29443.09668-.61036l.834-4.04785a3.38027,3.38027,0,0,0,.08105-.52929.39153.39153,0,0,0-.24414-.38575A4.22219,4.22219,0,0,0,710.62012,176.22461Z"/><path class="cls-2" d="M734.01367,169.55273l.12207.12207c-.06054.25782-.1289.55079-.20312.87989q-.11133.49218-.23926,1.07812-.12744.58447-.26465,1.24512-.13623.66212-.28906,1.36328l-.44824,2.15625a8.95231,8.95231,0,0,1,2.90918-1.1084,2.54013,2.54013,0,0,1,2.08007,1.03711,3.83759,3.83759,0,0,1,.81836,2.45117,6.08311,6.08311,0,0,1-1.83007,4.62793,6.611,6.611,0,0,1-4.75,1.73926,11.49024,11.49024,0,0,1-3.72266-.66113q.30468-1.17919.7832-3.53906l.98633-4.8418,1.02734-4.9834-1.68847-.24414.01074-.4375Q731.99023,170.02,734.01367,169.55273Zm-2.88867,14.4834a3.84526,3.84526,0,0,0,.92578.12207,2.90961,2.90961,0,0,0,2.52735-1.46484,6.044,6.044,0,0,0,.96191-3.39746,4.62381,4.62381,0,0,0-.30078-1.79492.9927.9927,0,0,0-.94043-.707,3.93333,3.93333,0,0,0-1.81055.58007Z"/><path class="cls-2" d="M740.25879,176.22461l.06152-.46777a12.097,12.097,0,0,1,2.96-.46778,1.9803,1.9803,0,0,1,1.05176.2334.82311.82311,0,0,1,.37207.75293,1.82909,1.82909,0,0,1-.041.417l-1.01758,4.61817a4.16243,4.16243,0,0,0-.09082.82324,1.69517,1.69517,0,0,0,.2998,1.07324.98651.98651,0,0,0,.81836.38184,3.57873,3.57873,0,0,0,2.1875-1.16016l1.42383-6.835,2.85742-.10156-1.55566,7.54687a2.46287,2.46287,0,0,0-.06153.47852.59808.59808,0,0,0,.07715.32519.48508.48508,0,0,0,.25879.18848,1.834,1.834,0,0,0,.4834.08594q.3003.02051.74707.03125l-.06055.47754a12.60411,12.60411,0,0,1-2.665.42675,1.88489,1.88489,0,0,1-1.20507-.35058,1.20287,1.20287,0,0,1-.44239-1.00195c0-.06055.00293-.125.00977-.19336a4.87134,4.87134,0,0,1-3.32617,1.64843,2.49,2.49,0,0,1-2.6543-2.67578,4.63167,4.63167,0,0,1,.03613-.56933q.03516-.29443.09668-.61036l.834-4.04785a3.38027,3.38027,0,0,0,.08105-.52929.39153.39153,0,0,0-.24414-.38575A4.22214,4.22214,0,0,0,740.25879,176.22461Z"/><path class="cls-2" d="M760.05176,175.98047q1.5044-.41748,2.73535-.7832l.22363.15234q-.39551,1.09863-.81836,2.06543-.42187.96533-.85449,1.82031-.43214.854-.86426,1.61231-.43212.75732-.83886,1.42871-.42774.70166-.79883,1.31738-.37208.61524-.69727,1.18457-.26367.44824-.54394,1.0127-.2798.564-.54883,1.14843c-.17969.39063-.34473.76953-.49317,1.13965q-.22411.55371-.37695.96094a1.51252,1.51252,0,0,1-.2998.52441,1.09036,1.09036,0,0,1-.43262.2793,2.144,2.144,0,0,1-.60449.1123c-.23438.0127-.50684.01954-.81934.01954a20.89381,20.89381,0,0,1-2.2168-.10157l-.05078-.51855a6.4654,6.4654,0,0,0,1.11328-.22363,2.53852,2.53852,0,0,0,.85938-.4375,5.54447,5.54447,0,0,0,.47363-.41211,7.9956,7.9956,0,0,0,.60938-.67578q.35155-.42774.82422-1.084.47314-.65478,1.11425-1.63183l-.57031-.13282q-.0703-.54931-.22363-1.28125-.15234-.73242-.35547-1.52539-.20361-.79394-.4375-1.60254-.23437-.80859-.46777-1.5-.23437-.6914-.44825-1.21484a4.74913,4.74913,0,0,0-.36523-.75781,1.30635,1.30635,0,0,0-.35645-.37207,1.35579,1.35579,0,0,0-.42187-.18262,2.82828,2.82828,0,0,0-.499-.07129q-.26954-.01466-.57422-.02539l.06054-.46777a11.24479,11.24479,0,0,1,2.70606-.46778,2.73345,2.73345,0,0,1,.97656.16309,1.16318,1.16318,0,0,1,.62988.52832,8.78,8.78,0,0,1,.377.80371q.22264.52881.458,1.22559.2329.69726.47265,1.51074.23877.813.42188,1.65722l.19336,1.09864a16.84523,16.84523,0,0,0,1.23535-3.10742A13.16725,13.16725,0,0,0,760.05176,175.98047Z"/><path class="cls-2" d="M765.82813,182.0625a1.47159,1.47159,0,0,1,1.07812.42285,1.63528,1.63528,0,0,1-.02051,2.22754,1.51858,1.51858,0,0,1-1.09765.43164,1.45478,1.45478,0,0,1-1.09864-.43164,1.53772,1.53772,0,0,1-.417-1.11426,1.47465,1.47465,0,0,1,.4375-1.11328A1.54377,1.54377,0,0,1,765.82813,182.0625Zm-.06055-1.42383.80273-9.56054,3.19434-.12208.08105.08106-3.27539,9.56152Z"/><rect class="cls-3" x="513.71429" y="98.57143" width="272.57143" height="102.85714" rx="15.78571"/><rect class="cls-2" x="555.03571" y="55.2038" width="189.92857" height="30.17857" rx="12.53571"/><path class="cls-1" d="M577.36328,74.47314a7.77676,7.77676,0,0,1-3.33594.67188c-3.50439,0-5.78466-2.376-5.78466-5.92871a5.90307,5.90307,0,0,1,6.24072-6.16895,7.0587,7.0587,0,0,1,2.92822.60059l-.48,1.63184a4.89966,4.89966,0,0,0-2.44824-.55176c-2.66455,0-4.10449,1.96777-4.10449,4.39258,0,2.6875,1.728,4.34375,4.03222,4.34375a5.9912,5.9912,0,0,0,2.59229-.57618Z"/><path class="cls-1" d="M590.20361,69.00049c0,4.2959-2.97656,6.168-5.78466,6.168-3.144,0-5.56836-2.30371-5.56836-5.97657,0-3.88769,2.54394-6.168,5.76025-6.168C587.94727,63.02393,590.20361,65.44775,590.20361,69.00049Zm-9.21679.12012c0,2.54394,1.46386,4.46386,3.52832,4.46386,2.01611,0,3.52832-1.89551,3.52832-4.51172,0-1.96875-.98438-4.46484-3.48047-4.46484S580.98682,66.91162,580.98682,69.12061Z"/><path class="cls-1" d="M592.86621,66.43213c0-1.2002-.02392-2.18457-.0957-3.14453h1.84814l.09571,1.87207h.07226a4.00456,4.00456,0,0,1,3.64844-2.13574,3.43385,3.43385,0,0,1,3.28808,2.32812h.04786a4.79267,4.79267,0,0,1,1.29638-1.51269,3.96726,3.96726,0,0,1,2.56836-.81543c1.53614,0,3.81592,1.00781,3.81592,5.04v6.84083h-2.064V68.32861c0-2.23242-.81592-3.57715-2.52-3.57715a2.73577,2.73577,0,0,0-2.49659,1.9209,3.48671,3.48671,0,0,0-.168,1.05567v7.17676h-2.064V67.94385c0-1.84766-.81641-3.19239-2.42432-3.19239a3.14814,3.14814,0,0,0-2.78418,3.14454v7.00879h-2.06445Z"/><path class="cls-1" d="M612.88232,66.43213c0-1.2002-.02392-2.18457-.0957-3.14453h1.84815l.0957,1.87207h.07226a4.00456,4.00456,0,0,1,3.64844-2.13574,3.43386,3.43386,0,0,1,3.28809,2.32812h.04785a4.7927,4.7927,0,0,1,1.29639-1.51269,3.96724,3.96724,0,0,1,2.56836-.81543c1.53613,0,3.81591,1.00781,3.81591,5.04v6.84083h-2.064V68.32861c0-2.23242-.81592-3.57715-2.52-3.57715a2.73574,2.73574,0,0,0-2.49658,1.9209,3.48639,3.48639,0,0,0-.168,1.05567v7.17676h-2.064V67.94385c0-1.84766-.8164-3.19239-2.42431-3.19239a3.14814,3.14814,0,0,0-2.78418,3.14454v7.00879h-2.06446Z"/><path class="cls-1" d="M635.251,60.02393a1.30816,1.30816,0,0,1-2.61621,0,1.2869,1.2869,0,0,1,1.31982-1.32032A1.2541,1.2541,0,0,1,635.251,60.02393Zm-2.35254,14.88086V63.2876h2.1123V74.90479Z"/><path class="cls-1" d="M638.51416,66.43213c0-1.2002-.02393-2.18457-.0957-3.14453h1.87207l.12011,1.91992h.04786a4.27307,4.27307,0,0,1,3.84033-2.18359c1.6084,0,4.10449.96,4.10449,4.94433v6.93653H646.291V68.2085c0-1.87207-.69629-3.43262-2.688-3.43262a3.09734,3.09734,0,0,0-2.97657,3.14453v6.98438h-2.1123Z"/><path class="cls-1" d="M661.84277,63.2876c-.04785.83984-.0957,1.77636-.0957,3.19238V73.2251c0,2.66406-.52832,4.2959-1.65625,5.30371a6.15431,6.15431,0,0,1-4.22363,1.39258,7.50164,7.50164,0,0,1-3.86524-.96l.52832-1.6084a6.54964,6.54964,0,0,0,3.40821.91211c2.16015,0,3.74414-1.12793,3.74414-4.05664V72.9126h-.04785a4.14682,4.14682,0,0,1-3.69629,1.94433c-2.87989,0-4.94434-2.44824-4.94434-5.665,0-3.93554,2.56836-6.168,5.23242-6.168a3.86265,3.86265,0,0,1,3.624,2.01562h.04785l.09668-1.752Zm-2.18359,4.585a3.09057,3.09057,0,0,0-3.07227-3.19238c-2.0166,0-3.45605,1.7041-3.45605,4.39257,0,2.2793,1.15137,4.17579,3.43164,4.17579a3.089,3.089,0,0,0,2.92871-2.16016,3.67031,3.67031,0,0,0,.168-1.12793Z"/><path class="cls-1" d="M670.0498,72.74463a5.53493,5.53493,0,0,0,2.78418.83984c1.53614,0,2.25684-.76758,2.25684-1.72754,0-1.00879-.60059-1.56054-2.16016-2.13672-2.08886-.74414-3.07226-1.89648-3.07226-3.28808,0-1.87207,1.51172-3.4082,4.00781-3.4082a5.80112,5.80112,0,0,1,2.85645.71972l-.52832,1.53614a4.5199,4.5199,0,0,0-2.376-.67188c-1.24805,0-1.94434.71973-1.94434,1.584,0,.96.69629,1.39258,2.208,1.96875,2.0166.76758,3.04883,1.7754,3.04883,3.50391,0,2.04-1.584,3.48047-4.34473,3.48047a6.62843,6.62843,0,0,1-3.26367-.792Z"/><path class="cls-1" d="M690.35449,69.00049c0,4.2959-2.97558,6.168-5.78418,6.168-3.14453,0-5.56836-2.30371-5.56836-5.97657,0-3.88769,2.54395-6.168,5.76075-6.168C688.09863,63.02393,690.35449,65.44775,690.35449,69.00049Zm-9.21679.12012c0,2.54394,1.46484,4.46386,3.52832,4.46386,2.0166,0,3.52832-1.89551,3.52832-4.51172,0-1.96875-.9834-4.46484-3.4795-4.46484C682.21777,64.60791,681.1377,66.91162,681.1377,69.12061Z"/><path class="cls-1" d="M703.53027,69.00049c0,4.2959-2.97558,6.168-5.78418,6.168-3.14453,0-5.56836-2.30371-5.56836-5.97657,0-3.88769,2.54395-6.168,5.76075-6.168C701.27441,63.02393,703.53027,65.44775,703.53027,69.00049Zm-9.21679.12012c0,2.54394,1.46484,4.46386,3.52832,4.46386,2.0166,0,3.52832-1.89551,3.52832-4.51172,0-1.96875-.9834-4.46484-3.47949-4.46484C695.39355,64.60791,694.31348,66.91162,694.31348,69.12061Z"/><path class="cls-1" d="M706.19336,66.43213c0-1.2002-.02344-2.18457-.0957-3.14453h1.87207l.12011,1.91992h.04786a4.27272,4.27272,0,0,1,3.84082-2.18359c1.60742,0,4.10351.96,4.10351,4.94433v6.93653H713.9707V68.2085c0-1.87207-.69629-3.43262-2.68847-3.43262a3.09915,3.09915,0,0,0-2.97657,3.14453v6.98438h-2.1123Z"/><path class="cls-1" d="M719.00977,73.65674A1.41932,1.41932,0,0,1,720.4502,72.145a1.51421,1.51421,0,1,1-1.44043,1.51172Z"/><path class="cls-1" d="M723.97656,73.65674A1.41933,1.41933,0,0,1,725.417,72.145a1.51421,1.51421,0,1,1-1.44043,1.51172Z"/><path class="cls-1" d="M728.94434,73.65674a1.41932,1.41932,0,0,1,1.44043-1.51172,1.51421,1.51421,0,1,1-1.44043,1.51172Z"/><path d="M568.16211,225.49512v-2.0625a5.68757,5.68757,0,0,0,3.457,1.16015q2.53125,0,2.53125-1.6875a1.46413,1.46413,0,0,0-.2168-.81445,2.16068,2.16068,0,0,0-.58593-.5918,4.51077,4.51077,0,0,0-.86719-.46289q-.498-.20508-1.07227-.42773a13.812,13.812,0,0,1-1.40039-.63867A4.23053,4.23053,0,0,1,569,219.24316a2.70341,2.70341,0,0,1-.60937-.91992,3.25448,3.25448,0,0,1-.20508-1.207,2.86718,2.86718,0,0,1,.38672-1.49414,3.42922,3.42922,0,0,1,1.03125-1.08984,4.80854,4.80854,0,0,1,1.4707-.66211,6.52351,6.52351,0,0,1,1.70508-.22266,6.8848,6.8848,0,0,1,2.78906.53906v1.94532a5.43544,5.43544,0,0,0-3.04688-.86719,3.56108,3.56108,0,0,0-.97265.12305,2.38113,2.38113,0,0,0-.74414.3457,1.59711,1.59711,0,0,0-.48047.5332,1.40459,1.40459,0,0,0-.16992.68555,1.64414,1.64414,0,0,0,.16992.78515,1.72844,1.72844,0,0,0,.49805.5625,3.80676,3.80676,0,0,0,.79687.44532q.46875.19922,1.06641.43359a14.84311,14.84311,0,0,1,1.42968.62695,4.90375,4.90375,0,0,1,1.07813.72657,2.83908,2.83908,0,0,1,.68555.93164,3.00479,3.00479,0,0,1,.24023,1.2539,2.95644,2.95644,0,0,1-.39258,1.54688,3.36449,3.36449,0,0,1-1.04883,1.08984,4.8037,4.8037,0,0,1-1.51171.64453,7.4639,7.4639,0,0,1-1.793.21094A6.80824,6.80824,0,0,1,568.16211,225.49512Z"/><path d="M584.63867,225.81152a3.70539,3.70539,0,0,1-1.793.375q-3.15234,0-3.15234-3.51562v-7.10156h-2.0625v-1.64063h2.0625V210.999l1.92187-.62109v3.55078h3.02344v1.64063h-3.02344v6.76171a2.80309,2.80309,0,0,0,.41016,1.72266,1.63672,1.63672,0,0,0,1.35938.51563,2.02056,2.02056,0,0,0,1.2539-.39844Z"/><path d="M595.79492,225.92871h-1.92187v-1.875h-.04688a4.0235,4.0235,0,0,1-3.6914,2.15625,3.945,3.945,0,0,1-2.80664-.94922,3.28862,3.28862,0,0,1-1.01368-2.51953q0-3.36328,3.96094-3.91406l3.59766-.50391q0-3.05859-2.47266-3.05859a5.90748,5.90748,0,0,0-3.91406,1.47656v-1.96875a7.4366,7.4366,0,0,1,4.07812-1.125q4.23048,0,4.23047,4.47656Zm-1.92187-6.07031-2.89453.39844a4.69947,4.69947,0,0,0-2.01563.66211,1.90952,1.90952,0,0,0-.67969,1.68164,1.83158,1.83158,0,0,0,.627,1.43554,2.42263,2.42263,0,0,0,1.66992.55664,3.08473,3.08473,0,0,0,2.36133-1.00195,3.5799,3.5799,0,0,0,.93164-2.53711Z"/><path d="M608.9668,213.92871l-5.51953,13.92188q-1.47657,3.72655-4.14844,3.72656a4.397,4.397,0,0,1-1.25391-.15235v-1.72265a3.56235,3.56235,0,0,0,1.13672.21094,2.35555,2.35555,0,0,0,2.17969-1.73438l.96094-2.27344-4.6875-11.97656h2.13281l3.24609,9.23438q.05859.17577.2461.91406h.07031q.05859-.28125.23437-.89063l3.41016-9.25781Z"/><path d="M625.7832,225.37793a6.24464,6.24464,0,0,1-3.28125.832,5.43254,5.43254,0,0,1-4.14257-1.66992A6.05181,6.05181,0,0,1,616.7832,220.21a6.65293,6.65293,0,0,1,1.69922-4.76367,5.94427,5.94427,0,0,1,4.53516-1.79883,6.31272,6.31272,0,0,1,2.78906.58594v1.96875a4.88651,4.88651,0,0,0-2.85937-.9375,3.86409,3.86409,0,0,0-3.01758,1.31836,5.00264,5.00264,0,0,0-1.17774,3.46289,4.76329,4.76329,0,0,0,1.10743,3.32812,3.817,3.817,0,0,0,2.9707,1.21875,4.81662,4.81662,0,0,0,2.95312-1.043Z"/><path d="M633.70508,226.21a5.56618,5.56618,0,0,1-4.248-1.68164,6.22886,6.22886,0,0,1-1.58789-4.459,6.48894,6.48894,0,0,1,1.65234-4.72266,5.94035,5.94035,0,0,1,4.46485-1.69922,5.382,5.382,0,0,1,4.18945,1.65234,6.55159,6.55159,0,0,1,1.50586,4.582,6.4468,6.4468,0,0,1-1.62305,4.59961A5.68713,5.68713,0,0,1,633.70508,226.21Zm.14062-10.94531a3.65552,3.65552,0,0,0-2.92968,1.25976,5.1739,5.1739,0,0,0-1.07813,3.47461,4.893,4.893,0,0,0,1.08984,3.36328,3.7039,3.7039,0,0,0,2.918,1.23047,3.51342,3.51342,0,0,0,2.86524-1.207,5.23792,5.23792,0,0,0,1.00195-3.43359,5.32778,5.32778,0,0,0-1.00195-3.46875A3.498,3.498,0,0,0,633.8457,215.26465Z"/><path d="M652.71289,225.92871H650.791V219.085q0-3.8203-2.78907-3.82031a3.02532,3.02532,0,0,0-2.38476,1.084,4.01782,4.01782,0,0,0-.94336,2.73633v6.84375H642.752v-12h1.92188v1.99219h.04687a4.331,4.331,0,0,1,3.9375-2.27344,3.67126,3.67126,0,0,1,3.01172,1.27149,5.66369,5.66369,0,0,1,1.043,3.67382Z"/><path d="M666.29492,225.92871h-1.92187V219.085q0-3.8203-2.78907-3.82031a3.02533,3.02533,0,0,0-2.38476,1.084,4.01782,4.01782,0,0,0-.94336,2.73633v6.84375H656.334v-12h1.92188v1.99219h.04687a4.331,4.331,0,0,1,3.9375-2.27344A3.67126,3.67126,0,0,1,665.252,214.919a5.66363,5.66363,0,0,1,1.043,3.67382Z"/><path d="M679.56055,220.40918h-8.47266a4.48832,4.48832,0,0,0,1.07813,3.09375,3.71668,3.71668,0,0,0,2.83593,1.08984,5.89616,5.89616,0,0,0,3.72657-1.33593v1.80468a6.96479,6.96479,0,0,1-4.1836,1.14844,5.0719,5.0719,0,0,1-3.99609-1.63476,6.69114,6.69114,0,0,1-1.45313-4.59961,6.5618,6.5618,0,0,1,1.58789-4.56446,5.09145,5.09145,0,0,1,3.94336-1.76367,4.51143,4.51143,0,0,1,3.64453,1.52344,6.35166,6.35166,0,0,1,1.28907,4.23047Zm-1.96875-1.62891a3.91028,3.91028,0,0,0-.80274-2.58984,2.735,2.735,0,0,0-2.19726-.92578,3.10456,3.10456,0,0,0-2.3086.97265,4.414,4.414,0,0,0-1.17187,2.543Z"/><path d="M690.64648,225.37793a6.24464,6.24464,0,0,1-3.28125.832,5.43254,5.43254,0,0,1-4.14257-1.66992,6.05185,6.05185,0,0,1-1.57618-4.33008,6.65293,6.65293,0,0,1,1.69922-4.76367,5.94429,5.94429,0,0,1,4.53516-1.79883,6.31272,6.31272,0,0,1,2.78906.58594v1.96875a4.88651,4.88651,0,0,0-2.85937-.9375A3.8641,3.8641,0,0,0,684.793,216.583a5.00264,5.00264,0,0,0-1.17774,3.46289,4.76334,4.76334,0,0,0,1.10743,3.32812,3.817,3.817,0,0,0,2.9707,1.21875,4.81662,4.81662,0,0,0,2.95312-1.043Z"/><path d="M699.11914,225.81152a3.70539,3.70539,0,0,1-1.793.375q-3.15234,0-3.15234-3.51562v-7.10156h-2.0625v-1.64063h2.0625V210.999l1.92187-.62109v3.55078h3.02344v1.64063H696.0957v6.76171a2.80309,2.80309,0,0,0,.41016,1.72266,1.63672,1.63672,0,0,0,1.35937.51563,2.02057,2.02057,0,0,0,1.25391-.39844Z"/><path d="M711.14258,220.40918h-8.47266a4.48832,4.48832,0,0,0,1.07813,3.09375,3.71668,3.71668,0,0,0,2.83593,1.08984,5.89616,5.89616,0,0,0,3.72657-1.33593v1.80468A6.96479,6.96479,0,0,1,706.127,226.21a5.0719,5.0719,0,0,1-3.99609-1.63476,6.69114,6.69114,0,0,1-1.45313-4.59961,6.56175,6.56175,0,0,1,1.5879-4.56446,5.09141,5.09141,0,0,1,3.94335-1.76367,4.51146,4.51146,0,0,1,3.64454,1.52344,6.35171,6.35171,0,0,1,1.28906,4.23047Zm-1.96875-1.62891a3.91022,3.91022,0,0,0-.80274-2.58984,2.735,2.735,0,0,0-2.19726-.92578,3.10456,3.10456,0,0,0-2.3086.97265,4.414,4.414,0,0,0-1.17187,2.543Z"/><path d="M724.291,225.92871h-1.92188v-2.03906h-.04687a4.43658,4.43658,0,0,1-4.125,2.32031,4.48206,4.48206,0,0,1-3.61524-1.61133,6.61025,6.61025,0,0,1-1.35351-4.38867,7.19145,7.19145,0,0,1,1.5-4.76953,4.9473,4.9473,0,0,1,3.99609-1.793,3.84671,3.84671,0,0,1,3.59766,1.94531h.04687v-7.42968H724.291Zm-1.92188-5.42578V218.7334a3.433,3.433,0,0,0-.96094-2.46094,3.223,3.223,0,0,0-2.4375-1.00781,3.31861,3.31861,0,0,0-2.76562,1.28906,5.64875,5.64875,0,0,0-1.00781,3.5625,5.0804,5.0804,0,0,0,.96679,3.27539,3.15984,3.15984,0,0,0,2.59571,1.20117,3.28244,3.28244,0,0,0,2.60742-1.16015A4.32226,4.32226,0,0,0,722.36914,220.50293Z"/><path d="M729.64648,226.13965a1.26333,1.26333,0,0,1-.91992-.375,1.23421,1.23421,0,0,1-.38086-.91406,1.3008,1.3008,0,0,1,2.60157,0,1.225,1.225,0,0,1-.38672.91406A1.26923,1.26923,0,0,1,729.64648,226.13965Zm.98438-17.01563-.22266,12.07032h-1.582l-.21094-12.07032Z"/></g></svg>